<svg xmlns="http://www.w3.org/2000/svg" xmlns:xlink="http://www.w3.org/1999/xlink" width="103.307" height="50.029" viewBox="0 0 103.307 50.029">
  <defs>
    <clipPath id="clip-path">
      <rect id="Rectangle_8" data-name="Rectangle 8" width="103.307" height="50.029" transform="translate(10.442 0)" fill="none"/>
    </clipPath>
  </defs>
  <g id="Group_13" data-name="Group 13" transform="translate(-10.442 0)">
    <g id="Group_12" data-name="Group 12" clip-path="url(#clip-path)">
      <path id="Path_17" data-name="Path 17" d="M111.749,50.029a49.654,49.654,0,1,0-99.307,0" fill="#ffe48d"/>
      <path id="Path_18" data-name="Path 18" d="M111.749,50.029a49.654,49.654,0,1,0-99.307,0" fill="none" stroke="#000" stroke-miterlimit="10" stroke-width="0.75"/>
      <path id="Path_24" data-name="Path 24" d="M78.545,33.454a.881.881,0,0,0-.874-.855,18.13,18.13,0,0,0-7.057.731,7.565,7.565,0,0,0-5.051,4.625,10.224,10.224,0,0,0,.161,7.244.372.372,0,0,1,.028.244c-.2.458-.4.909-.645,1.44-.138-1.212-.24-2.334-.4-3.448a29.484,29.484,0,0,0-2.758-9.555,2.387,2.387,0,0,1-.127-2.615,2.324,2.324,0,0,0,.188-.547c1.4-4.465-.173-7.841-4.482-9.651a15.453,15.453,0,0,0-4.564-1.174c-1.669-.155-3.351-.2-5.029-.256a.885.885,0,0,0-.987.879,20.126,20.126,0,0,0,.886,7.755A8.263,8.263,0,0,0,53.585,33.9a11.472,11.472,0,0,0,5.784-.014c.314-.074.495-.036.617.28.591,1.538,1.306,3.038,1.771,4.612a43.825,43.825,0,0,1,1.5,13.386c-.035,1.706-.2,3.408-.309,5.161h.023l1,.014h1.171a28.01,28.01,0,0,1,2.434-11.167c.171.06.308.11.446.155a8.328,8.328,0,0,0,4.214.44,6.273,6.273,0,0,0,4.515-3.584,19.787,19.787,0,0,0,1.795-9.724M60.09,30.4c-.015.041-.034.08-.077.181-.122-.144-.223-.26-.321-.381a14.606,14.606,0,0,0-5.371-4.254,1.652,1.652,0,0,0-.722-.167.907.907,0,0,0-.838.8.942.942,0,0,0,.6,1.036,11.753,11.753,0,0,1,3.4,2.257c.679.658,1.291,1.384,2,2.149-3.422.8-7.281.165-8.943-3.925a16.391,16.391,0,0,1-.936-6.6c.8.04,1.613.057,2.422.124A18.211,18.211,0,0,1,56.687,22.8c3.541,1.434,4.687,4,3.4,7.606M76.6,35.817a16.268,16.268,0,0,1-1.269,5.851,8.148,8.148,0,0,1-1.293,2.011,4.219,4.219,0,0,1-4.27,1.128c-.406-.081-.8-.209-1.236-.324a1.729,1.729,0,0,1,.091-.226,15.369,15.369,0,0,1,4.356-4.777.944.944,0,0,0,.308-1.326.9.9,0,0,0-1.321-.283,27.368,27.368,0,0,0-2.7,2.314,26.056,26.056,0,0,0-1.882,2.372c-.086.111-.165.229-.268.372-.674-3.354.433-6.257,3.481-7.549a14.331,14.331,0,0,1,6.007-.879c0,.438.025.878,0,1.316"/>
    </g>
  </g>
</svg>
