<?xml version="1.0" standalone="no"?>
<!DOCTYPE svg PUBLIC "-//W3C//DTD SVG 20010904//EN"
 "http://www.w3.org/TR/2001/REC-SVG-20010904/DTD/svg10.dtd">
<svg version="1.0" xmlns="http://www.w3.org/2000/svg"
 width="885.000000pt" height="885.000000pt" viewBox="0 0 885.000000 885.000000"
 preserveAspectRatio="xMidYMid meet">
<metadata>
Created by potrace 1.14, written by Peter Selinger 2001-2017
</metadata>
<g transform="translate(0.000000,885.000000) scale(0.100000,-0.100000)"
fill="#000000" stroke="none">
<path d="M4160 8834 c-903 -63 -1710 -363 -2412 -897 -889 -675 -1494 -1675
-1677 -2769 -49 -289 -56 -386 -56 -753 0 -366 10 -486 61 -775 212 -1189 912
-2247 1928 -2914 562 -369 1178 -595 1871 -688 152 -20 211 -23 550 -23 338 0
398 3 545 23 517 70 930 192 1365 401 1191 574 2066 1648 2380 2924 130 529
160 1128 84 1677 -166 1195 -820 2272 -1810 2981 -453 324 -1006 575 -1550
703 -142 34 -362 71 -534 91 -133 15 -620 28 -745 19z m190 -3564 c513 -1560
593 -1817 700 -2235 62 -243 60 -236 71 -210 5 11 31 112 59 225 104 416 191
699 693 2245 l513 1580 327 3 c307 2 327 1 326 -15 0 -10 -361 -1051 -803
-2313 l-803 -2295 -350 -3 -349 -2 -454 1312 c-249 722 -471 1365 -494 1428
l-41 115 -6 -950 c-5 -915 -6 -953 -26 -1040 -78 -338 -235 -574 -493 -740
-135 -88 -293 -149 -483 -187 -98 -20 -142 -23 -352 -23 -270 0 -361 12 -545
71 -305 98 -523 283 -666 567 -112 222 -174 520 -174 839 l0 138 309 0 308 0
7 -152 c9 -200 23 -312 52 -428 67 -268 221 -430 461 -487 108 -25 387 -25
488 0 184 46 311 147 389 309 87 183 80 2 83 2033 2 990 5 1806 8 1813 3 10
81 12 361 10 l357 -3 527 -1605z m2510 -2705 l0 -315 -320 0 -320 0 0 315 0
315 320 0 320 0 0 -315z"/>
</g>
</svg>
